<?xml version="1.0" encoding="UTF-8" standalone="no"?>
<svg
   xmlns:dc="http://purl.org/dc/elements/1.1/"
   xmlns:cc="http://creativecommons.org/ns#"
   xmlns:rdf="http://www.w3.org/1999/02/22-rdf-syntax-ns#"
   xmlns:svg="http://www.w3.org/2000/svg"
   xmlns="http://www.w3.org/2000/svg"
   xmlns:sodipodi="http://sodipodi.sourceforge.net/DTD/sodipodi-0.dtd"
   xmlns:inkscape="http://www.inkscape.org/namespaces/inkscape"
   inkscape:version="1.0 (4035a4f, 2020-05-01)"
   sodipodi:docname="heart.svg"
   id="svg14"
   version="1.1"
   viewBox="0 0 512 512"
   height="512"
   width="512">
  <metadata
     id="metadata20">
    <rdf:RDF>
      <cc:Work
         rdf:about="">
        <dc:format>image/svg+xml</dc:format>
        <dc:type
           rdf:resource="http://purl.org/dc/dcmitype/StillImage" />
      </cc:Work>
    </rdf:RDF>
  </metadata>
  <defs
     id="defs18" />
  <sodipodi:namedview
     inkscape:current-layer="svg14"
     inkscape:window-maximized="0"
     inkscape:window-y="23"
     inkscape:window-x="0"
     inkscape:cy="256"
     inkscape:cx="112.83089"
     inkscape:zoom="1.4667969"
     showgrid="false"
     id="namedview16"
     inkscape:window-height="959"
     inkscape:window-width="1680"
     inkscape:pageshadow="2"
     inkscape:pageopacity="0"
     guidetolerance="10"
     gridtolerance="10"
     objecttolerance="10"
     borderopacity="1"
     bordercolor="#666666"
     pagecolor="#ffffff" />
  <title
     id="title10">ionicons-v5-f</title>
  <path
     style="fill:#d62828;fill-opacity:1"
     id="path12"
     d="M256,448a32,32,0,0,1-18-5.57c-78.59-53.35-112.62-89.93-131.39-112.8-40-48.75-59.15-98.8-58.61-153C48.63,114.52,98.46,64,159.08,64c44.08,0,74.61,24.83,92.39,45.51a6,6,0,0,0,9.06,0C278.31,88.81,308.84,64,352.92,64,413.54,64,463.37,114.52,464,176.64c.54,54.21-18.63,104.26-58.61,153-18.77,22.87-52.8,59.45-131.39,112.8A32,32,0,0,1,256,448Z" />
</svg>
